<svg width="24" height="24" viewBox="0 0 24 24" fill="none" xmlns="http://www.w3.org/2000/svg">
<path fill-rule="evenodd" clip-rule="evenodd" d="M16.0599 10.94C16.3408 11.2213 16.4986 11.6025 16.4986 12C16.4986 12.3975 16.3408 12.7788 16.0599 13.06L10.4039 18.718C10.1225 18.9993 9.74089 19.1572 9.34304 19.1571C8.94518 19.157 8.56365 18.9989 8.28239 18.7175C8.00113 18.4361 7.84317 18.0545 7.84326 17.6566C7.84336 17.2588 8.00149 16.8773 8.28289 16.596L12.8789 12L8.28289 7.404C8.00952 7.12123 7.85814 6.7424 7.86137 6.3491C7.8646 5.9558 8.02218 5.5795 8.30016 5.30126C8.57815 5.02302 8.95429 4.86508 9.34759 4.86148C9.74088 4.85788 10.1199 5.0089 10.4029 5.282L16.0609 10.939L16.0599 10.94Z" fill="black"/>
</svg>
