<svg width="48" height="48" viewBox="0 0 48 48" fill="none" xmlns="http://www.w3.org/2000/svg">
<path d="M24 38C25.8385 38 27.659 37.6379 29.3576 36.9343C31.0561 36.2307 32.5995 35.1995 33.8995 33.8995C35.1995 32.5995 36.2307 31.0561 36.9343 29.3576C37.6379 27.659 38 25.8385 38 24M24 38C20.287 38 16.726 36.525 14.1005 33.8995C11.475 31.274 10 27.713 10 24M24 38V42M38 24C38 22.1615 37.6379 20.341 36.9343 18.6424C36.2307 16.9439 35.1995 15.4005 33.8995 14.1005C32.5995 12.8005 31.0561 11.7693 29.3576 11.0657C27.659 10.3621 25.8385 10 24 10M38 24H42M24 10C20.287 10 16.726 11.475 14.1005 14.1005C11.475 16.726 10 20.287 10 24M24 10V6M10 24H6" stroke="black" stroke-width="1.5" stroke-linecap="round" stroke-linejoin="round"/>
</svg>
