<svg width="48" height="48" viewBox="0 0 48 48" fill="none" xmlns="http://www.w3.org/2000/svg">
<path d="M33.112 25.812L32.202 26.718C32.202 26.718 30.036 28.87 24.126 22.994C18.216 17.118 20.382 14.966 20.382 14.966L20.954 14.394C22.368 12.99 22.502 10.734 21.268 9.08596L18.748 5.71996C17.22 3.67996 14.27 3.40996 12.52 5.14996L9.38 8.26996C8.514 9.13396 7.934 10.25 8.004 11.49C8.184 14.664 9.62 21.49 17.628 29.454C26.122 37.898 34.092 38.234 37.35 37.93C38.382 37.834 39.278 37.31 40 36.59L42.84 33.766C44.76 31.86 44.22 28.59 41.764 27.256L37.944 25.178C36.332 24.304 34.372 24.56 33.112 25.812Z" fill="black"/>
</svg>
