<svg width="48" height="48" viewBox="0 0 48 48" fill="none" xmlns="http://www.w3.org/2000/svg">
<path d="M24 4C35.046 4 44 12.954 44 24C44 35.046 35.046 44 24 44C12.954 44 4 35.046 4 24C4 12.954 12.954 4 24 4ZM24 12C23.4696 12 22.9609 12.2107 22.5858 12.5858C22.2107 12.9609 22 13.4696 22 14V24C22.0001 24.5304 22.2109 25.039 22.586 25.414L28.586 31.414C28.9632 31.7783 29.4684 31.9799 29.9928 31.9753C30.5172 31.9708 31.0188 31.7605 31.3896 31.3896C31.7605 31.0188 31.9708 30.5172 31.9753 29.9928C31.9799 29.4684 31.7783 28.9632 31.414 28.586L26 23.172V14C26 13.4696 25.7893 12.9609 25.4142 12.5858C25.0391 12.2107 24.5304 12 24 12Z" fill="black"/>
</svg>
