<svg width="24" height="24" viewBox="0 0 24 24" fill="none" xmlns="http://www.w3.org/2000/svg">
<path d="M12 3C10.8181 3 9.64778 3.23279 8.55585 3.68508C7.46392 4.13738 6.47177 4.80031 5.63604 5.63604C4.80031 6.47177 4.13738 7.46392 3.68508 8.55585C3.23279 9.64778 3 10.8181 3 12C3 13.1819 3.23279 14.3522 3.68508 15.4442C4.13738 16.5361 4.80031 17.5282 5.63604 18.364C6.47177 19.1997 7.46392 19.8626 8.55585 20.3149C9.64778 20.7672 10.8181 21 12 21C14.3869 21 16.6761 20.0518 18.364 18.364C20.0518 16.6761 21 14.3869 21 12C21 9.61305 20.0518 7.32387 18.364 5.63604C16.6761 3.94821 14.3869 3 12 3ZM1 12C1 5.925 5.925 1 12 1C18.075 1 23 5.925 23 12C23 18.075 18.075 23 12 23C5.925 23 1 18.075 1 12ZM8 8.5V9.5C8 9.63261 8.05268 9.75979 8.14645 9.85355C8.24021 9.94732 8.36739 10 8.5 10C8.63261 10 8.75979 9.94732 8.85355 9.85355C8.94732 9.75979 9 9.63261 9 9.5V8.5H11V9.5C11 10.163 10.7366 10.7989 10.2678 11.2678C9.79893 11.7366 9.16304 12 8.5 12C7.83696 12 7.20107 11.7366 6.73223 11.2678C6.26339 10.7989 6 10.163 6 9.5V8.5H8ZM15 8.5V9.5C15 9.63261 15.0527 9.75979 15.1464 9.85355C15.2402 9.94732 15.3674 10 15.5 10C15.6326 10 15.7598 9.94732 15.8536 9.85355C15.9473 9.75979 16 9.63261 16 9.5V8.5H18V9.5C18 10.163 17.7366 10.7989 17.2678 11.2678C16.7989 11.7366 16.163 12 15.5 12C14.837 12 14.2011 11.7366 13.7322 11.2678C13.2634 10.7989 13 10.163 13 9.5V8.5H15ZM8.9 13.634L9.4 14.499C9.922 15.4 10.89 16 12 16C13.11 16 14.08 15.399 14.6 14.5L15.1 13.634L16.831 14.635L16.331 15.501C15.892 16.261 15.2606 16.8921 14.5003 17.3308C13.7401 17.7694 12.8777 18.0003 12 18C11.1223 18 10.2601 17.7689 9.50007 17.3301C8.74 16.8913 8.10883 16.2601 7.67 15.5L7.169 14.635L8.9 13.634Z" fill="black"/>
</svg>
