<svg width="24" height="24" viewBox="0 0 24 24" fill="none" xmlns="http://www.w3.org/2000/svg">
<path d="M9 13V5C9 3.9 9.9 3 11 3H20C21.1 3 22 3.9 22 5V11H18.57L17.29 9.26C17.2776 9.23929 17.26 9.22216 17.2389 9.21026C17.2179 9.19836 17.1942 9.19211 17.17 9.19211C17.1458 9.19211 17.1221 9.19836 17.1011 9.21026C17.08 9.22216 17.0624 9.23929 17.05 9.26L15.06 12C15 12.06 14.88 12.07 14.82 12L13.39 10.25C13.3757 10.2335 13.3581 10.2202 13.3382 10.2112C13.3184 10.2021 13.2968 10.1974 13.275 10.1974C13.2532 10.1974 13.2316 10.2021 13.2118 10.2112C13.1919 10.2202 13.1743 10.2335 13.16 10.25L11.05 12.91C10.97 13 11.04 13.15 11.16 13.15H17.5V15H11C9.89 15 9 14.11 9 13ZM6 22V21H4V22H2V2H4V3H6V2H8.39C7.54 2.74 7 3.8 7 5V13C7 15.21 8.79 17 11 17H15.7C14.67 17.83 14 19.08 14 20.5C14 21.03 14.11 21.53 14.28 22H6ZM4 7H6V5H4V7ZM4 11H6V9H4V11ZM4 15H6V13H4V15ZM6 19V17H4V19H6ZM23 13V15H21V20.5C21 21.163 20.7366 21.7989 20.2678 22.2678C19.7989 22.7366 19.163 23 18.5 23C17.837 23 17.2011 22.7366 16.7322 22.2678C16.2634 21.7989 16 21.163 16 20.5C16.0002 20.085 16.1037 19.6766 16.3012 19.3116C16.4987 18.9466 16.784 18.6365 17.1312 18.4093C17.4785 18.1821 17.8769 18.0449 18.2904 18.0101C18.704 17.9753 19.1196 18.044 19.5 18.21V13H23Z" fill="black"/>
</svg>
