<svg width="25" height="25" viewBox="0 0 25 25" fill="none" xmlns="http://www.w3.org/2000/svg">
<g clip-path="url(#clip0_351_29)">
<path d="M12.5002 0C8.4125 0 5.0625 3.34 5.0625 7.4165C5.0625 8.996 5.567 10.464 6.42075 11.6705L11.5925 20.6112C12.3167 21.5575 12.7983 21.3778 13.4005 20.5613L19.105 10.8538C19.22 10.6453 19.3105 10.4232 19.3892 10.1965C19.7511 9.31433 19.9373 8.37 19.9373 7.4165C19.9375 3.34 16.5885 0 12.5002 0ZM12.5002 3.475C14.7017 3.475 16.4522 5.2215 16.4522 7.4165C16.4522 9.6115 14.7017 11.3575 12.5002 11.3575C10.299 11.3575 8.54775 9.612 8.54775 7.41675C8.54775 5.2215 10.299 3.47525 12.5 3.47525" fill="black"/>
<path d="M17.2282 12.2271L17.2162 12.2586L17.2267 12.2298L17.2282 12.2271ZM15.962 18.3385L15.6162 18.7661C16.0837 18.8226 16.5362 18.8888 16.96 18.9691L15.5902 19.3748L17.4185 19.8611L18.7812 19.4313C19.6182 19.7121 20.7772 20.0553 21.1612 20.4455H18.4287L18.7002 21.2396H21.5357C21.5272 21.6871 20.7272 22.0505 19.9632 22.345L18.0255 21.9261L16.1997 22.5803L18.1497 23.0253C17.0112 23.3353 15.0997 23.5238 13.5172 23.6106L13.4507 22.7006H11.5492L11.4825 23.6106C9.89998 23.5238 7.98873 23.3355 6.84998 23.0255L8.80023 22.5803L6.97448 21.9261L5.03648 22.345C4.28348 22.1163 3.47273 21.6871 3.46423 21.2396H6.29998L6.57148 20.4455H3.83898C4.22298 20.0553 5.38198 19.7121 6.21898 19.4313L7.58173 19.8611L9.40998 19.3748L8.04023 18.9691C8.48259 18.8874 8.92749 18.8201 9.37423 18.7673L9.03348 18.3391C5.33723 18.7233 2.26523 19.5416 1.45973 20.8338C0.174977 22.8933 4.91448 24.9651 12.3425 24.9973C12.453 25.0028 12.562 24.9988 12.665 24.9973C20.0887 24.9633 24.824 22.8923 23.5402 20.8338C22.7342 19.5411 19.6605 18.7225 15.962 18.3385Z" fill="black"/>
</g>
<defs>
<clipPath id="clip0_351_29">
<rect width="25" height="25" fill="white"/>
</clipPath>
</defs>
</svg>
