<svg width="24" height="24" viewBox="0 0 24 24" fill="none" xmlns="http://www.w3.org/2000/svg">
<path d="M11.172 2C11.9676 2.00017 12.7305 2.31635 13.293 2.879L21.003 10.589C21.6424 11.2285 22.0015 12.0957 22.0015 13C22.0015 13.9043 21.6424 14.7715 21.003 15.411L15.411 21.003C14.7715 21.6424 13.9043 22.0015 13 22.0015C12.0957 22.0015 11.2285 21.6424 10.589 21.003L2.879 13.293C2.31635 12.7305 2.00017 11.9676 2 11.172V6C2 4.93913 2.42143 3.92172 3.17157 3.17157C3.92172 2.42143 4.93913 2 6 2H11.172ZM7.5 5.5C6.99542 5.49984 6.50943 5.69041 6.13945 6.0335C5.76947 6.37659 5.54284 6.84684 5.505 7.35L5.5 7.5C5.5 7.89556 5.6173 8.28224 5.83706 8.61114C6.05682 8.94004 6.36918 9.19638 6.73463 9.34776C7.10009 9.49913 7.50222 9.53874 7.89018 9.46157C8.27814 9.3844 8.63451 9.19392 8.91421 8.91421C9.19392 8.63451 9.3844 8.27814 9.46157 7.89018C9.53874 7.50222 9.49913 7.10009 9.34776 6.73463C9.19638 6.36918 8.94004 6.05682 8.61114 5.83706C8.28224 5.6173 7.89556 5.5 7.5 5.5Z" fill="black"/>
</svg>
