<svg width="84" height="33" viewBox="0 0 84 33" fill="none" xmlns="http://www.w3.org/2000/svg">
<path d="M57.699 33H47.332L83.332 10.8766L58.1583 0C61.4171 0 64.2057 0.660645 66.524 1.98193C68.8424 3.29248 70.6194 5.17773 71.8551 7.6377C73.0909 10.0869 73.7087 13.0195 73.7087 16.4355C73.7087 19.873 73.0854 22.8325 71.8387 25.314C70.5921 27.7847 68.7768 29.686 66.3928 31.0181C64.0088 32.3394 61.1109 33 57.699 33ZM51.4001 29.4551H57.4365C60.2142 29.4551 62.5161 28.9287 64.3424 27.876C66.1686 26.8232 67.5301 25.3247 68.4268 23.3804C69.3235 21.436 69.7719 19.1211 69.7719 16.4355C69.7719 13.7715 69.329 11.478 68.4432 9.55517C67.5574 7.62158 66.2342 6.13916 64.4736 5.10791C62.713 4.06592 60.5204 3.54492 57.8958 3.54492H51.4001V29.4551Z" fill="black"/>
<path d="M65.332 10C65.332 11.1046 64.4366 12 63.332 12C62.2275 12 61.332 11.1046 61.332 10C61.332 8.89543 62.2275 8 63.332 8C64.4366 8 65.332 8.89543 65.332 10Z" fill="#F9F9F9"/>
<path d="M2.69531 15.1836C2.79688 15.2695 2.84766 15.3828 2.84766 15.5234C2.84766 15.6641 2.80078 15.7812 2.70703 15.875C2.61328 15.9688 2.5 16.0156 2.36719 16.0156C2.24219 16.0156 2.13281 15.9688 2.03906 15.875C1.64844 15.5 1.16016 15.0938 0.574219 14.6562C0.480469 14.5859 0.425781 14.4922 0.410156 14.375C0.402344 14.2578 0.441406 14.1602 0.527344 14.082C0.621094 13.9883 0.730469 13.9336 0.855469 13.918C0.878906 13.918 0.898438 13.918 0.914062 13.918C1.02344 13.918 1.125 13.9492 1.21875 14.0117C1.82031 14.4414 2.3125 14.832 2.69531 15.1836ZM2.30859 18.9805C2.38672 18.9023 2.48047 18.8711 2.58984 18.8867C2.70703 18.8945 2.79688 18.9453 2.85938 19.0391C2.92188 19.1328 2.95312 19.2344 2.95312 19.3438C2.95312 19.3672 2.94922 19.3906 2.94141 19.4141C2.93359 19.5469 2.88281 19.6602 2.78906 19.7539C1.99219 20.6133 1.30859 21.3203 0.738281 21.875C0.644531 21.9609 0.535156 22 0.410156 21.9922C0.285156 21.9844 0.1875 21.9297 0.117188 21.8281C0.0390625 21.7344 0 21.6328 0 21.5234C0 21.375 0.0546875 21.25 0.164062 21.1484C0.664062 20.6562 1.37891 19.9336 2.30859 18.9805ZM7.19531 15.9922C7.14062 15.9922 7.11328 16.0195 7.11328 16.0742V17.5039C7.10547 17.7383 7.125 18.0078 7.17188 18.3125C7.21875 18.6094 7.31641 18.9727 7.46484 19.4023C7.62109 19.832 7.81641 20.25 8.05078 20.6562C8.28516 21.0547 8.60938 21.4609 9.02344 21.875C9.44531 22.2812 9.92578 22.625 10.4648 22.9062C10.582 22.9688 10.6562 23.0586 10.6875 23.1758C10.6953 23.2148 10.6992 23.25 10.6992 23.2812C10.6992 23.3594 10.6719 23.4375 10.6172 23.5156C10.5312 23.625 10.4219 23.6992 10.2891 23.7383C10.2422 23.7539 10.1953 23.7617 10.1484 23.7617C10.0625 23.7617 9.98047 23.7383 9.90234 23.6914C9.40234 23.4102 8.94531 23.0664 8.53125 22.6602C8.125 22.2539 7.79688 21.8438 7.54688 21.4297C7.29688 21.0078 7.09766 20.6172 6.94922 20.2578C6.80859 19.8906 6.71094 19.5586 6.65625 19.2617C6.65625 19.2539 6.64844 19.25 6.63281 19.25C6.625 19.25 6.62109 19.2539 6.62109 19.2617C6.55859 19.5664 6.44531 19.8984 6.28125 20.2578C6.11719 20.6172 5.89453 21.0078 5.61328 21.4297C5.33203 21.8516 4.95312 22.2695 4.47656 22.6836C4.00781 23.0898 3.48047 23.4375 2.89453 23.7266C2.81641 23.7578 2.74219 23.7734 2.67188 23.7734C2.625 23.7734 2.57812 23.7656 2.53125 23.75C2.40625 23.7109 2.30078 23.6406 2.21484 23.5391C2.16797 23.4688 2.14453 23.3984 2.14453 23.3281C2.14453 23.2969 2.14844 23.2695 2.15625 23.2461C2.17969 23.1367 2.24219 23.0586 2.34375 23.0117C2.96094 22.7305 3.50781 22.3828 3.98438 21.9688C4.46875 21.5469 4.84375 21.1367 5.10938 20.7383C5.375 20.332 5.59375 19.9102 5.76562 19.4727C5.9375 19.0273 6.05078 18.6523 6.10547 18.3477C6.16016 18.0352 6.1875 17.7539 6.1875 17.5039V16.0742C6.1875 16.0195 6.15625 15.9922 6.09375 15.9922H4.80469C4.75 15.9922 4.71094 16.0195 4.6875 16.0742C4.38281 16.8086 4.04297 17.457 3.66797 18.0195C3.59766 18.1367 3.49219 18.207 3.35156 18.2305C3.32031 18.2305 3.28906 18.2305 3.25781 18.2305C3.15625 18.2305 3.0625 18.207 2.97656 18.1602C2.86719 18.0898 2.79688 17.9961 2.76562 17.8789C2.74219 17.7539 2.76953 17.6406 2.84766 17.5391C3.58984 16.5078 4.16797 15.1484 4.58203 13.4609C4.61328 13.3281 4.68359 13.2266 4.79297 13.1562C4.87891 13.0938 4.96875 13.0625 5.0625 13.0625C5.09375 13.0625 5.125 13.0664 5.15625 13.0742C5.28125 13.0977 5.37891 13.1641 5.44922 13.2734C5.51953 13.3828 5.53516 13.5 5.49609 13.625C5.36328 14.1406 5.22656 14.6055 5.08594 15.0195C5.07812 15.043 5.07812 15.0625 5.08594 15.0781C5.10156 15.0938 5.12109 15.1016 5.14453 15.1016H9.86719C9.88281 15.1016 9.89844 15.1016 9.91406 15.1016C10.0156 15.0703 10.1172 15.082 10.2188 15.1367L10.3945 15.2305C10.4883 15.2852 10.5547 15.3633 10.5938 15.4648C10.6406 15.5664 10.6484 15.668 10.6172 15.7695C10.3516 16.5977 10.0117 17.4141 9.59766 18.2188C9.54297 18.3203 9.46094 18.3906 9.35156 18.4297C9.24219 18.4609 9.13672 18.4531 9.03516 18.4062C8.93359 18.3516 8.86328 18.2734 8.82422 18.1719C8.79297 18.0625 8.80078 17.957 8.84766 17.8555C9.12891 17.2617 9.36328 16.668 9.55078 16.0742C9.55859 16.0508 9.55469 16.0312 9.53906 16.0156C9.53125 16 9.51562 15.9922 9.49219 15.9922H7.19531Z" fill="black"/>
<path d="M21.1641 13.9062C21.2812 13.9062 21.3828 13.9492 21.4688 14.0352C21.5547 14.1133 21.5977 14.2109 21.5977 14.3281C21.5977 14.4453 21.5547 14.5469 21.4688 14.6328C21.3828 14.7188 21.2812 14.7617 21.1641 14.7617H13.5703C13.4531 14.7617 13.3516 14.7188 13.2656 14.6328C13.1875 14.5469 13.1484 14.4453 13.1484 14.3281C13.1484 14.2109 13.1875 14.1133 13.2656 14.0352C13.3516 13.9492 13.4531 13.9062 13.5703 13.9062H21.1641ZM19.793 22.8594H21.3398C21.5586 22.8594 21.7031 22.7578 21.7734 22.5547C21.8516 22.3438 21.9062 21.8828 21.9375 21.1719C21.9375 21.0703 21.9805 20.9961 22.0664 20.9492C22.1602 20.9023 22.2539 20.8984 22.3477 20.9375C22.4727 21 22.5742 21.0859 22.6523 21.1953C22.7227 21.2969 22.7578 21.4062 22.7578 21.5234C22.7578 22.2969 22.6367 22.8789 22.3945 23.2695C22.207 23.5586 21.875 23.7031 21.3984 23.7031H19.6875C19.1562 23.7031 18.7969 23.6094 18.6094 23.4219C18.4219 23.2422 18.3281 22.8945 18.3281 22.3789V18.1953C18.3281 18.1328 18.2969 18.1016 18.2344 18.1016H16.1719C16.1172 18.1016 16.0859 18.1328 16.0781 18.1953C16.0312 18.7188 15.9688 19.1836 15.8906 19.5898C15.8203 19.9883 15.707 20.4023 15.5508 20.832C15.4023 21.2617 15.2188 21.6406 15 21.9688C14.7812 22.2969 14.4961 22.6133 14.1445 22.918C13.8008 23.2227 13.3984 23.4844 12.9375 23.7031C12.8672 23.7344 12.7969 23.75 12.7266 23.75C12.6797 23.75 12.6289 23.7422 12.5742 23.7266C12.457 23.6875 12.3555 23.6172 12.2695 23.5156C12.207 23.4297 12.1836 23.3359 12.1992 23.2344C12.2227 23.1328 12.2812 23.0586 12.375 23.0117C12.7969 22.8242 13.1602 22.5977 13.4648 22.332C13.7773 22.0586 14.0273 21.7812 14.2148 21.5C14.4102 21.2109 14.5703 20.875 14.6953 20.4922C14.8281 20.1094 14.9219 19.7461 14.9766 19.4023C15.0391 19.0586 15.0898 18.6562 15.1289 18.1953C15.1367 18.1328 15.1094 18.1016 15.0469 18.1016H12.5273C12.4102 18.1016 12.3086 18.0625 12.2227 17.9844C12.1445 17.8984 12.1055 17.7969 12.1055 17.6797C12.1055 17.5547 12.1445 17.4492 12.2227 17.3633C12.3086 17.2773 12.4102 17.2344 12.5273 17.2344H22.1719C22.2891 17.2344 22.3906 17.2773 22.4766 17.3633C22.5625 17.4492 22.6055 17.5547 22.6055 17.6797C22.6055 17.7969 22.5625 17.8984 22.4766 17.9844C22.3906 18.0625 22.2891 18.1016 22.1719 18.1016H19.3125C19.2578 18.1016 19.2305 18.1328 19.2305 18.1953V22.3672C19.2305 22.5703 19.2656 22.7031 19.3359 22.7656C19.4062 22.8281 19.5586 22.8594 19.793 22.8594Z" fill="black"/>
<path d="M26.1562 15.1602C26.0938 15.1602 26.0625 15.1914 26.0625 15.2539V16.4961C26.0625 16.5508 26.0938 16.5781 26.1562 16.5781H27.5273C27.5898 16.5781 27.6211 16.5508 27.6211 16.4961V15.2539C27.6211 15.1914 27.5898 15.1602 27.5273 15.1602H26.1562ZM29.2969 16.5781C29.4062 16.5781 29.4961 16.6172 29.5664 16.6953C29.6445 16.7656 29.6836 16.8555 29.6836 16.9648C29.6836 17.0742 29.6445 17.168 29.5664 17.2461C29.4961 17.3164 29.4062 17.3516 29.2969 17.3516H24.2461C24.1367 17.3516 24.043 17.3164 23.9648 17.2461C23.8945 17.168 23.8594 17.0742 23.8594 16.9648C23.8594 16.8555 23.8945 16.7656 23.9648 16.6953C24.043 16.6172 24.1367 16.5781 24.2461 16.5781H25.1602C25.2227 16.5781 25.2539 16.5508 25.2539 16.4961V15.2539C25.2539 15.1914 25.2227 15.1602 25.1602 15.1602H24.4336C24.3242 15.1602 24.2305 15.125 24.1523 15.0547C24.082 14.9766 24.0469 14.8867 24.0469 14.7852C24.0469 14.6836 24.082 14.5977 24.1523 14.5273C24.2305 14.4492 24.3242 14.4102 24.4336 14.4102H25.1602C25.2227 14.4102 25.2539 14.3789 25.2539 14.3164V13.4727C25.2539 13.3633 25.293 13.2695 25.3711 13.1914C25.4492 13.1055 25.543 13.0625 25.6523 13.0625C25.7695 13.0625 25.8672 13.1055 25.9453 13.1914C26.0234 13.2695 26.0625 13.3633 26.0625 13.4727V14.3164C26.0625 14.3789 26.0938 14.4102 26.1562 14.4102H27.5273C27.5898 14.4102 27.6211 14.3789 27.6211 14.3164V13.4727C27.6211 13.3633 27.6602 13.2695 27.7383 13.1914C27.8164 13.1055 27.9141 13.0625 28.0312 13.0625C28.1484 13.0625 28.2461 13.1055 28.3242 13.1914C28.4023 13.2695 28.4414 13.3633 28.4414 13.4727V14.3164C28.4414 14.3789 28.4727 14.4102 28.5352 14.4102H29.2734C29.3828 14.4102 29.4727 14.4492 29.543 14.5273C29.6211 14.5977 29.6602 14.6836 29.6602 14.7852C29.6602 14.8867 29.6211 14.9766 29.543 15.0547C29.4727 15.125 29.3828 15.1602 29.2734 15.1602H28.5352C28.4727 15.1602 28.4414 15.1914 28.4414 15.2539V16.4961C28.4414 16.5508 28.4727 16.5781 28.5352 16.5781H29.2969ZM25.5352 21.125C25.5352 21.1797 25.5664 21.207 25.6289 21.207H28.0664C28.1289 21.207 28.1602 21.1797 28.1602 21.125V20.457C28.1602 20.4023 28.1289 20.375 28.0664 20.375H25.6289C25.5664 20.375 25.5352 20.4023 25.5352 20.457V21.125ZM28.1602 18.9336C28.1602 18.8789 28.1289 18.8516 28.0664 18.8516H25.6289C25.5664 18.8516 25.5352 18.8789 25.5352 18.9336V19.6016C25.5352 19.6562 25.5664 19.6836 25.6289 19.6836H28.0664C28.1289 19.6836 28.1602 19.6562 28.1602 19.6016V18.9336ZM28.2891 18.1367C28.4844 18.1367 28.6484 18.207 28.7812 18.3477C28.9141 18.4805 28.9805 18.6406 28.9805 18.8281V22.9883C28.9805 23.207 28.9531 23.375 28.8984 23.4922C28.8438 23.6094 28.7461 23.7031 28.6055 23.7734C28.418 23.8516 28.0469 23.8945 27.4922 23.9023C27.3828 23.9023 27.2812 23.8633 27.1875 23.7852C27.1016 23.7148 27.0391 23.625 27 23.5156C26.9688 23.4297 26.9766 23.3477 27.0234 23.2695C27.0781 23.1992 27.1523 23.1641 27.2461 23.1641C27.3789 23.1719 27.4844 23.1758 27.5625 23.1758C27.6406 23.1758 27.7227 23.1719 27.8086 23.1641C27.9023 23.1641 27.9531 23.1641 27.9609 23.1641C28.0312 23.1641 28.082 23.1484 28.1133 23.1172C28.1445 23.0859 28.1602 23.0391 28.1602 22.9766V21.9922C28.1602 21.9375 28.1289 21.9102 28.0664 21.9102H25.6289C25.5664 21.9102 25.5352 21.9375 25.5352 21.9922V23.5156C25.5352 23.625 25.4961 23.7188 25.418 23.7969C25.3398 23.8828 25.2422 23.9258 25.125 23.9258C25.0078 23.9258 24.9102 23.8828 24.832 23.7969C24.7539 23.7188 24.7148 23.625 24.7148 23.5156V18.8281C24.7148 18.6406 24.7812 18.4805 24.9141 18.3477C25.0469 18.207 25.2109 18.1367 25.4062 18.1367H28.2891ZM31.1367 16.0156C31.1133 16.0156 31.0938 16.0312 31.0781 16.0625C31.0703 16.0859 31.0703 16.1133 31.0781 16.1445C31.3359 17.5977 31.6836 18.8164 32.1211 19.8008C32.1211 19.8164 32.1289 19.8242 32.1445 19.8242C32.168 19.8242 32.1836 19.8164 32.1914 19.8008C32.6133 18.8086 32.9297 17.5742 33.1406 16.0977C33.1484 16.043 33.1211 16.0156 33.0586 16.0156H31.1367ZM34.6875 15.3008C34.7734 15.3789 34.8164 15.4766 34.8164 15.5938C34.8164 15.7109 34.7734 15.8125 34.6875 15.8984C34.6094 15.9766 34.5117 16.0156 34.3945 16.0156H34.1016C34.0391 16.0156 34.0039 16.043 33.9961 16.0977C33.7305 18.0117 33.2852 19.5625 32.6602 20.75C32.6367 20.8047 32.6367 20.8555 32.6602 20.9023C33.1758 21.7695 33.7852 22.4375 34.4883 22.9062C34.5898 22.9766 34.6484 23.0742 34.6641 23.1992C34.6797 23.3242 34.6445 23.4336 34.5586 23.5273C34.4727 23.6367 34.3633 23.707 34.2305 23.7383C34.1992 23.7461 34.1641 23.75 34.125 23.75C34.0312 23.75 33.9414 23.7188 33.8555 23.6562C33.207 23.1719 32.6406 22.5312 32.1562 21.7344C32.1484 21.7109 32.1328 21.6992 32.1094 21.6992C32.0938 21.6992 32.0781 21.707 32.0625 21.7227C31.5078 22.4961 30.8086 23.1562 29.9648 23.7031C29.8867 23.75 29.8086 23.7734 29.7305 23.7734C29.6914 23.7734 29.6523 23.7656 29.6133 23.75C29.4961 23.7188 29.3984 23.6484 29.3203 23.5391C29.2734 23.4688 29.25 23.3906 29.25 23.3047C29.25 23.2812 29.25 23.2539 29.25 23.2227C29.2734 23.1055 29.3359 23.0156 29.4375 22.9531C30.3438 22.4219 31.0664 21.7266 31.6055 20.8672C31.6367 20.8203 31.6406 20.7695 31.6172 20.7148C31.2422 19.8711 30.9062 18.8164 30.6094 17.5508C30.6094 17.543 30.6016 17.5391 30.5859 17.5391C30.5703 17.5312 30.5625 17.5352 30.5625 17.5508C30.4219 17.8945 30.2578 18.2266 30.0703 18.5469C30.0156 18.6484 29.9297 18.7031 29.8125 18.7109C29.7031 18.7109 29.6094 18.6641 29.5312 18.5703C29.4453 18.4688 29.3945 18.3477 29.3789 18.207C29.3789 18.1836 29.3789 18.1602 29.3789 18.1367C29.3789 18.0273 29.4062 17.9219 29.4609 17.8203C30.0469 16.7656 30.4961 15.2891 30.8086 13.3906C30.832 13.2656 30.8906 13.168 30.9844 13.0977C31.0625 13.043 31.1484 13.0156 31.2422 13.0156C31.2656 13.0156 31.2891 13.0195 31.3125 13.0273C31.4297 13.043 31.5234 13.1016 31.5938 13.2031C31.6641 13.2969 31.6875 13.4023 31.6641 13.5195C31.5625 14.1211 31.457 14.6445 31.3477 15.0898C31.332 15.1445 31.3516 15.1719 31.4062 15.1719H34.3945C34.5117 15.1719 34.6094 15.2148 34.6875 15.3008Z" fill="black"/>
<path d="M38.25 18.2188C38.3359 18.1094 38.4453 18.0312 38.5781 17.9844C38.6484 17.9609 38.7148 17.9492 38.7773 17.9492C38.8477 17.9492 38.9141 17.9609 38.9766 17.9844C39.0859 18.0234 39.1562 18.0977 39.1875 18.207C39.2266 18.3164 39.2109 18.418 39.1406 18.5117C38.5859 19.2305 37.9258 19.8867 37.1602 20.4805C37.0586 20.5586 36.9414 20.5977 36.8086 20.5977C36.8008 20.5977 36.793 20.5977 36.7852 20.5977C36.6445 20.5898 36.5156 20.543 36.3984 20.457C36.3125 20.3867 36.2695 20.2969 36.2695 20.1875C36.2695 20.0703 36.3164 19.9805 36.4102 19.918C37.1367 19.418 37.75 18.8516 38.25 18.2188ZM44.3555 18.6055C44.4102 18.4805 44.4961 18.3906 44.6133 18.3359C44.7305 18.2812 44.8477 18.2734 44.9648 18.3125C45.0898 18.3516 45.1797 18.4297 45.2344 18.5469C45.2891 18.6641 45.293 18.7812 45.2461 18.8984C44.668 20.3125 43.7852 21.4102 42.5977 22.1914C41.418 22.9727 39.8242 23.5312 37.8164 23.8672C37.7852 23.8672 37.7539 23.8672 37.7227 23.8672C37.6211 23.8672 37.5273 23.8438 37.4414 23.7969C37.3164 23.7266 37.2188 23.6289 37.1484 23.5039C37.1016 23.4102 37.0977 23.3125 37.1367 23.2109C37.1836 23.1172 37.2578 23.0625 37.3594 23.0469C39.2656 22.7734 40.7773 22.2852 41.8945 21.582C43.0117 20.8789 43.832 19.8867 44.3555 18.6055ZM41.8008 16.4961C41.8008 16.5508 41.8281 16.5781 41.8828 16.5781H46.2422C46.3594 16.5781 46.457 16.6211 46.5352 16.707C46.6211 16.7852 46.6641 16.8828 46.6641 17C46.6641 17.1094 46.6211 17.207 46.5352 17.293C46.457 17.3711 46.3594 17.4102 46.2422 17.4102H41.8711C41.8164 17.4102 41.7891 17.4375 41.7891 17.4922V20.1875C41.7891 20.4219 41.7539 20.6016 41.6836 20.7266C41.6211 20.8516 41.5039 20.9453 41.332 21.0078C41.0977 21.0938 40.6562 21.1367 40.0078 21.1367C39.8828 21.1367 39.7695 21.1016 39.668 21.0312C39.5742 20.9531 39.5039 20.8516 39.457 20.7266C39.418 20.6328 39.4258 20.5469 39.4805 20.4688C39.543 20.3828 39.6211 20.3438 39.7148 20.3516C39.9492 20.3516 40.1445 20.3516 40.3008 20.3516C40.4648 20.3516 40.5898 20.3516 40.6758 20.3516C40.7695 20.3438 40.8281 20.3281 40.8516 20.3047C40.8828 20.2812 40.8984 20.2383 40.8984 20.1758V17.4922C40.8984 17.4375 40.8711 17.4102 40.8164 17.4102H36.4336C36.3164 17.4102 36.2148 17.3711 36.1289 17.293C36.0508 17.207 36.0117 17.1094 36.0117 17C36.0117 16.8828 36.0508 16.7852 36.1289 16.707C36.2148 16.6211 36.3164 16.5781 36.4336 16.5781H37.7109C37.7734 16.5781 37.8047 16.5508 37.8047 16.4961V14.3398C37.8047 14.2148 37.8477 14.1094 37.9336 14.0234C38.0195 13.9375 38.125 13.8945 38.25 13.8945C38.375 13.8945 38.4805 13.9375 38.5664 14.0234C38.6523 14.1094 38.6953 14.2148 38.6953 14.3398V16.4961C38.6953 16.5508 38.7227 16.5781 38.7773 16.5781H40.8164C40.8711 16.5781 40.8984 16.5508 40.8984 16.4961V13.4141C40.8984 13.2891 40.9414 13.1836 41.0273 13.0977C41.1211 13.0117 41.2266 12.9688 41.3438 12.9688C41.4688 12.9688 41.5742 13.0117 41.6602 13.0977C41.7539 13.1836 41.8008 13.2891 41.8008 13.4141V14.2812C41.8008 14.3438 41.8281 14.375 41.8828 14.375H45.0234C45.1406 14.375 45.2383 14.418 45.3164 14.5039C45.4023 14.582 45.4453 14.6797 45.4453 14.7969C45.4453 14.9062 45.4023 15.0039 45.3164 15.0898C45.2383 15.168 45.1406 15.207 45.0234 15.207H41.8828C41.8281 15.207 41.8008 15.2383 41.8008 15.3008V16.4961Z" fill="black"/>
</svg>
